<svg id="Calque_1" data-name="Calque 1" xmlns="http://www.w3.org/2000/svg" viewBox="0 0 1366 768"><defs><style>.cls-1{opacity:0.94;}.cls-2{fill:#202020;}</style></defs><g class="cls-1"><path class="cls-2" d="M1338.43,183.23c.56-2.08-1-6.12-3.59-4.63l-.27,7.56Z"/><path class="cls-2" d="M1316.59,174.6c-2.44,4.21-4.77,11.15-1.09,17.15,1.6-7.59,3.07-4.93,4.61-13.87,2.58-1.49,5.39,1.11,5.55,3.83.55-2.05,4.69.52,5.12-4.29-4.94-4.61-9.57-3.73-13.27,1.94C1316.11,178.05,1316.67,176,1316.59,174.6Z"/><path class="cls-2" d="M1042.33,228l2,.42A3.36,3.36,0,0,0,1042.33,228Z"/><path class="cls-2" d="M873.3,265.79c1.24-.5,1.59-1.34,1.49-2C873.72,264.57,872.86,265.25,873.3,265.79Z"/><path class="cls-2" d="M842.63,265.47c.67.06,1.22,0,1.81,0C843.63,265,842.89,264.84,842.63,265.47Z"/><path class="cls-2" d="M1042.33,228l-5-1.14C1037.54,229.21,1040,228,1042.33,228Z"/><path class="cls-2" d="M1283.21,200.62a6.08,6.08,0,0,0,2-2.44,18.85,18.85,0,0,1-2.12,1.3C1283.14,199.87,1283.18,200.21,1283.21,200.62Z"/><path class="cls-2" d="M1115.17,204.54l1.36-.33a22.57,22.57,0,0,0,.46-3.15Z"/><path class="cls-2" d="M1171.87,190c-1.35,0-.38,6.16-.25,8.91.14-2.65.82-4.06,1.84-4.79A17.23,17.23,0,0,0,1171.87,190Z"/><path class="cls-2" d="M1264.66,179.27l1.4-1.21C1265.71,178.42,1265.06,178.83,1264.66,179.27Z"/><path class="cls-2" d="M1074.09,212.93a7.69,7.69,0,0,0-1-2A5.23,5.23,0,0,0,1074.09,212.93Z"/><path class="cls-2" d="M167.66,419.07c-.12-.42-.28-.66-.41-1C167.15,418.76,167.21,419.21,167.66,419.07Z"/><path class="cls-2" d="M92.61,412.46c.28-.14.54-.28.8-.44-.21-1.15-.44-2.27-.75-3.37C92.69,409.93,92.67,411.21,92.61,412.46Z"/><path class="cls-2" d="M788.09,271.84a1.41,1.41,0,0,0,.27.05C789.56,270.84,788.8,271.17,788.09,271.84Z"/><path class="cls-2" d="M562.26,292.08c3.48,1.72,2,4.12.77,6.49s-2,4.69,2.88,6.25C564.43,302.77,569.88,293.25,562.26,292.08Z"/><path class="cls-2" d="M1281.54,200.18a13.9,13.9,0,0,1-2.32.62A4.19,4.19,0,0,0,1281.54,200.18Z"/><path class="cls-2" d="M565.91,304.82l0,.05,1,.27Z"/><path class="cls-2" d="M669.22,308.46a8.34,8.34,0,0,0,1.92,2.3A5.42,5.42,0,0,0,669.22,308.46Z"/><path class="cls-2" d="M760.76,292.35l-2.43-.18A5.19,5.19,0,0,0,760.76,292.35Z"/><path class="cls-2" d="M625,328.82c-1.32-.15-1.94-.87-3.38.35a3.22,3.22,0,0,0,.69.61C622.65,328.8,623.35,328.22,625,328.82Z"/><path class="cls-2" d="M581,341.23a9.93,9.93,0,0,0,.35,1.23c.18-.12.37-.24.53-.36C581.54,341.82,581.25,341.53,581,341.23Z"/><path class="cls-2" d="M307.43,353.24a20.37,20.37,0,0,1-4.51-4C305.53,352.87,299.49,357.51,307.43,353.24Z"/><path class="cls-2" d="M1282.38,197.25c.07,1.58-.16,2.43-.84,2.93a13.73,13.73,0,0,0,1.55-.7A3.51,3.51,0,0,0,1282.38,197.25Z"/><path class="cls-2" d="M635.12,376.58l-7.73,1.05a22.26,22.26,0,0,0,3.56-.22A39.91,39.91,0,0,0,635.12,376.58Z"/><path class="cls-2" d="M317.1,336.53l.79-1.69A1.51,1.51,0,0,0,317.1,336.53Z"/><path class="cls-2" d="M606.08,384.66a11.47,11.47,0,0,0-5.34-2.81,5.21,5.21,0,0,0-.36,1.79Z"/><path class="cls-2" d="M302.87,349.19l.05.05Z"/><path class="cls-2" d="M261.45,385.05c7-3.09-.11-8.73-.61-13.65,7.27-6,6.36,3.62,10.94,6.07,4.24-4.38,5-13,9-14.51.85,1.08,1.8,1.17,1.65,3.09,2.63-8.39,16-7.91,18.79-18.28a5.31,5.31,0,0,1,1.7,1.42,33.29,33.29,0,0,1-5.79-9.58c3-1.61,3.48-7.37,6.94-3.15-1.95.77-1.17,2.78-1.34,4.7l2.22-3.64c6.24,5.47-3.25,4.51-.8,9.6,5.25-5.28,9.8-14.54,15.56-15,4.33,6.21-10.18,7.82-.8,10.61l-8.75,1.09c10.89,7.82-4.92,1.47,5.86,10.26,10.88-2.9,9.41-8.82,20.27-11.84.35-4.83-3.5-5.11-3.16-9.94,5.27-6.86,10.13-4.12,14.46-1.42s8.08,5.31,10.89-1.84c.35-5.87-3.17-14.66,6.48-14.37l1.68,8.76c10-4.72-.62-13.58,12-14.42,0,3.88-5.91,6.73-4,6.77,9.74,2,2.06-6.77,6.85-9.65l4.86,5.81c9.26-7,16.93-18.21,26.66-26,.61,2.25.06,5.36,3.74,5.74a48.14,48.14,0,0,1,4.48-4,61.69,61.69,0,0,1,5.06-3.62,95.54,95.54,0,0,1,11.24-6.17c7.85-3.71,16.27-6.8,24.15-9.89.39-3,.75-5.93,1.07-8.9,1.17-.82,3.9.67,3.43,2.62,6.54-2-2.26-3.43-1.43-7.3a3.62,3.62,0,0,1,1-.73,2.75,2.75,0,0,1,.51-.21,1.83,1.83,0,0,1,.25-.06c.09-.05-.07.1,0,.07l.07,0a3.78,3.78,0,0,1,1.23.95,13.06,13.06,0,0,1,2,3.13,8.13,8.13,0,0,1-.21-1.05c0-.18-.05-.36-.07-.55s0-.45-.14-.43a8.56,8.56,0,0,0-1.92-.42,11.42,11.42,0,0,0-2.33,0,11.18,11.18,0,0,0-1.25.2l-.64.14-.32.08-.17,0h0l-.06.09-.24.4-.25.4-.12.19-16-12.65.33.27.73.67.89.84,1,1c.75.72,1.49,1.46,2.22,2.21l-20-20.15c-4.66,7.15-10.38,13.3-17.16,14.9l.1-2.85c-3.9,2.13-3.15,6.11-2.69,9.76s.67,7-4.17,7.53l.23-1.84c-1.84,1.35-3.54,2.73-5.3,4.27s-3.51,3.17-5.2,4.83c-3.4,3.3-6.67,6.72-10,9.88-6.66,6.34-13.53,11.67-22,13.13,2.36,4.16-1.83,6.88-5.4,9.73s-6.6,5.89-2.31,10.78c-6,1.65-8.86,1.52-11.91,1.94s-6.28,1.45-12.73,5c-3,2.25,1.89,9.65-.48,13.87L327.36,325c.19,3.13.38,6.22.46,9.39q-4-1.83-7.93-3.71l-2,4.15a5.37,5.37,0,0,1,5.86,1.45c-1.47,3.41-5.39,5.3-9.21,5.93s-7.52.06-8.7-1.22q-4.27,7.31-9,14.6c-1.39-2.37.18-4.79.76-7.48-2.5,10.79-5.61-4.65-8,5.22,1.79.56,2,3.55,2.71,4.74A12.3,12.3,0,0,0,285,359.7c-.62.33-1.24.69-1.85,1.09l-.77.48-.22.16s0,0,0,0l-.19.13-.49.32-1.26.86a35.13,35.13,0,0,0-7.93,7.67l-17,22.91,22.3,15.8a32.25,32.25,0,0,0,11.65,5.13,30.39,30.39,0,0,0,12.93,0,26.77,26.77,0,0,1-9.51,4.93,35.62,35.62,0,0,0,8.44.05c.69-.08,1.29-.17,1.93-.28s1.3-.23,1.88-.36c1.14-.26,2.39-.6,3.39-.93a38.81,38.81,0,0,0,9.95-4.93l-8,4c5-1.52,10-3.71,15.23-5.85,2.62-1.07,5.29-2.12,8-3.07,1.36-.47,2.74-.92,4.13-1.32.72-.21,1.34-.39,2.15-.6l2.34-.58a5.41,5.41,0,0,1-3.28-1.82,7,7,0,0,1-1.43-3.28c-.44-2.36.4-4.83,2.33-5.7l3.31,6.55c1.57-4.94-4.86-1.57-.78-8.17,5.34-.47,5.4,7.06,3,10.06l5.62-3.94c.87,2-.3,3.44,0,6.18,1.47-4.94,12.21,4.46,14.07-3.91l.83,2c13.56-3.09,19.23-6.87,30.34-9.73-1.13-6.09,3.55-5.73,5.81-11.35,8.68.08,18.94,2.78,28.87,0,6.36-4.62.89-5.57,3.23-9.89,1.77,5.38,11.7,2.52,7.41,7.67,11.85-3.72,15.26-4.76,29.25-13-2.21-1.83-4.29-2.33-3.8-4.44,2.51-1.58,6.81.73,7.08,3.45l-.58.75c7.45-6.25,18.24-4.79,28.6-3.75s20.26,1.7,25.42-5.91l-.6.78q6.19-5,12.3-10c6.73-1-2.65,5.22,3.13,7.13,6.23-6.77,12.26-8.32,18.12-9.42s11.51-1.79,16.69-6.86a14.22,14.22,0,0,0,8.8,3.45,18.65,18.65,0,0,0,3.15-.2c4.25-.64,8.63-2.6,13-4.86,8.72-4.49,17.23-10.05,25.75-8l-2.32-3.26c1.74-5,4.88.29,7.68,0-1.59-2.61-5-1.62-3.83-4.47a123.26,123.26,0,0,1,13.56-7.59c2.36-1.13,4.67-2.18,7.16-3.23l8.32-3.72c2.65-1.19,5.18-2.32,7.6-3.34,1.21-.51,2.39-1,3.55-1.45l1.7-.65.84-.31.71-.22c1.92-.61,4.35-1.38,7.27-2.48a71.35,71.35,0,0,0,10.21-4.72l1.64-1,1.46-.9,1.22-.75,1.06-.63a14.34,14.34,0,0,1,2.88-1.4l.39-.06a2.18,2.18,0,0,1,.22.06h0v0l-.22-.3-.92-1.3c-.6-.88-1.2-1.76-1.77-2.66l-.44-.67-.35-.53-.67-1c-.44-.68-.87-1.38-1.28-2.09s-.74-1.2-1.07-1.79-.64-1.12-.93-1.7-.54-1-.78-1.47-.46-.93-.67-1.41l-.15-.35-.13-.28-.26-.56q-.24-.57-.45-1.17a14.15,14.15,0,0,1-.62-1.91l-26.18-34.58c-4.78,3.61-8.58,6.92-11.58,9.41-1.88,1.63-1.91,3.28-1.37,5.17a48.29,48.29,0,0,0,2.66,5.78,17.35,17.35,0,0,1,1.09,2.7,2.82,2.82,0,0,1-.15,2.43c-.88,1.66-3,2.94-7.21,3.65q-.93-4.07-1.79-8.18c-5.9,11.15-14.27,19.17-22.52,26.91-2.05,1.93-4.1,3.84-6.09,5.77-1,1-2,1.93-2.93,2.9l-1.47,1.53c-.55.57-1.07,1.13-1.59,1.7a54.56,54.56,0,0,0-9.39,13.81c-.35-2-1.88-3.56-.49-4.93a6.26,6.26,0,0,0-4.45,1.34,8.19,8.19,0,0,0-.89.77,6.21,6.21,0,0,0-.65.75,11.19,11.19,0,0,0-1.1,1.84c-1.32,2.71-2.15,6.43-.78,8.1-2.83,1.74-3.07-2.51-6.07-2.85-2.78.3-4.16,3.67-5.59,6.84s-2.34,5.65-5,4.55c-.88-.35-.25-2.11.14-3a8.18,8.18,0,0,1-2.27,3.7l-1.53,1.63c-.23.25-.44.49-.63.73-.07.08-.06.09,0,.1s0,0,0,0a.66.66,0,0,0,0,.14c.06.52.38,1.45,2.05,3.23-.18-.58-2.5.63-4.92,2.47a36.37,36.37,0,0,0-4.57,4.2l-.69.78c-.23.27-.44.51-.73.87-.55.69-1,1.32-1.58,2.1s-1.18,1.8-1.71,2.74a35.53,35.53,0,0,0-1.76,3.69L540.43,388l40.23-2.74a60.87,60.87,0,0,0,11-1.9c3.48-.89,6.71-1.89,9.89-2.65l-2.43.91a9.54,9.54,0,0,1,1.66.21c.89-3.85,4.33-4.06,7.31-4.47s5.54-1,4.83-5.83c1.12,4.86,4.93,5.85,8.89,4.95a17.81,17.81,0,0,0,10-6.59c-.92,3.34,5.11,1.91,4.19,6.45,5.66-1.6,10.42-4.72,8.14-9.42,13.49,8.83,18.63-14.67,28.41-1.42,7.76-4.77,15.34-9,22.74-12.88s14.63-7.55,21.86-10.78c2,9.73-16.4,5.6-13,15.48,13.25-7.94,19.26-18.45,34.07-20.09,4,.28-.95,4.73-1.75,6.71,13.21-7.92,27.88-6.82,39.15-15.57.21.9-.89,2.25-2,3.34,2.42-1,6.21-.22,4.73-4.49l-2.12,1.86c-5.74-5.19,6.3-16,5.82-19.4-.4,6.82,3,6.72,6.11,7.14S794.21,318.2,793,327a6,6,0,0,0,1.72-6.69c2.67.19,3.91,1.68,2.35,5.66,8.27-4.78,3.84-8.55,12-10.64.54,2.11-.87,3.37-1,6.07,3-5.21,6-10.44,13.31-10.51-.08,1.38,1.16,2.82-.89,3.34,11.59-3.78,17.19-16.28,31.18-15.74-1.41,10.19,5.19,1.85,8,9.63l6.34-4.17-3.8-3.13c6.13-1.45,10-8.64,16-7.4l-3.69,4.46,11.05-4.48-7.25-1.33c5.12-5.7-3.26-9.9,5.44-9.79-1.44,1.23,6.14-1.49,10.53,2.4a0,0,0,0,0,0,0c2.38-3.31,4.81-6.77,9.84-5.94,1.82,2.25,1.3,9,2.49,10.54,1.29-7.41,13.84-5.48,15.84-13.54-.85,2,.14,6.18.77,6.93l1.15-6c3.27,1,3.89,1.76,4.27,5.21,8.78-1.15-5.25-9.43,6-7.61-.68.64-.1,1.35-1.55,2.59,10.74-.27,18.79-8.36,28.8-8,4.75,7.34-7.68,4-2.84,10C972,274,984.42,262.28,998,261l-2.65-.3c-1-11.77,11.09,3.23,16.39-3.72-1.41,1.24-.59,6.81-.46,5.44,9.39-.35,17.61-7.23,30.32-14.06l-1,3.32c5.9,1.34,14.25-1.84,20.27-1.88,1-3.32,4.37-3.62,1.37-7.39,21.55,12.41,31.42-16.91,50.33-6.77-1.86.48-3.85,3.61-2.36,3.26l12.66-5.83c-2.23-4.7-2.46-2.58-6.16-5.77a11.22,11.22,0,0,1,7.5-7.27c-5.21,4.69,1.93,7.93,5.17,10.08-.8-1.42-.31-3.3-.89-4.79,9,7.16-1.19-10.23,9.7-6.54l.11,2.72c3.24-2.17,5.7-6.38,9.7-6.54,2.94,5.35-3.15,3.57-2.28,8.33,5.3-1.6,8.06-13.34,14.27-8.79-1.91,2.13-5.19,2.94-7.1,5.06,6.89,5.47,7.1,3.62,11.29,3.75l-.43-.06,9.83.9-2.75-1.28c3.21-16.51,13.06-6,19.82-17.87-6.63,11.33-.19,5.7.66,12.34,2.74,1.26,6.74,2.45,6.17,4.51,3-6.24,8.12,2.43,12.37-6.64.76,2,4.63-.88,4.9,4.59,5.19-3-2.17-3.32-2.32-6,6.9-9.17,22.23,3.89,32.27-8.83,9.71-6.54,10-14,19.06-19.89,4.13,2.55-.93,8.25-.93,8.25,6.11,1.8,10,.27,14.53-3.33-.59,2.07.83,3.36,2.93,5.33,4-1.51.92-8.24,7-6.44-.37,2.54-.66,6.55-2.07,9.35,4.34-3.06,8.15-8.09,12.66-11.15,2.19,3.32-1.68,6.23-2.86,9,5.19-3,13.67-6.74,14-12.91l-4.07-1.2c2-.77,2.23,4.69,1,6.1-3.71,5.66-7.38-.35-8.15-2.38l3.22-2.18c-6.55-11.37-13.73,5.35-21,6.33l.85-9.61-5.54,9.13c-2.11-2-4.35-6.67-1.15-8.84-6.14-3.19-3.76,4.24-9.31.38-.66-.65-.55-1.13-.18-1.6l-4.36,3.84c.53-2.1-2.32-6.09,1-5.53-10.16-3-12.85,10.09-17.81,4.14l.62-.72c-11.71,5.94.34,6.82-7.16,16.7l-10.07-14.65.32,6.82c-1.34.07-4,.18-4.14-2.55-3.71,5.6,1.49,2.65-.28,7.53-7.57-4.5-16.35,6.8-20.19-3.3-1,5.5,6.8,2.45,1,7.46-4.52-10.76-7.16,3.71-14-.1.37-6.19,6.42-4.38-.43-8.22-1.09,10.58-11.47.45-15.78,3.44,1.61,7.83-9.57,5.68-16.93,10.15-.12-2.73-16-.73-24.1-1.79l-.09-1.36c.42,8.2-7.58,8.52-12.77,11.47-.89-4.76-.33-6.85,2.19-9.67l-5.23,1.28c-.64,2.81-2,4.53-5.14,6.23l-.08-6.19c-6.89,2-12.39,10.25-22.3,8.45.8,5.6,10.76,13.57,2.15,19.48-1.05-2.87-2.61-7.86-.42-9.66-.72.57-2.31,3.15-4.25,2.27l2.6-5.88c-4.6-1.22-1.14,4.67-4.51,5-.95-4.24-3.14-2.44-3.47-5.9.74-.61,3.26,1.06,4.12-.89-3.86.12-8.91-1.33-11.14-4.17.89,2.32,1.35,5.69-1.21,6.88-6.9,2-3.6-4.52-8.19-5.72-1,3.34-6.16,1.36-4.76,7.7-2,.46-3.13-2.4-4.33-3.92-2.94,3.65-16.66,4.85-11,10.59l1,.22c-.14.17-.34.22-.52.41h0c-10.31,9.12-25.42,2.32-36.48,7.89l-.5-2.12c-6.41,4.12-15.23,5.22-19.11,11-2.07.5-5.83-2.66-5.56-5.38-5,2.9-5,5.42-13.55,3.84,4.47-5-2.66-2.81,4.85-4.06-7.4-.1-9.81-3.1-15.85,4.5,1.21-6-6.91-5.51-9.82-3.08l5.83,2.67c-3.52,1.69-6.88,2-10.29,2.4v-7.55c-16.39-5.07-21.95,21.08-36.41,9.39-2.5,5.92,8.6,1.53,6.71,8.19-6.77.7-16.16-7.75-18.22-7.25-10-1.64-5.71,12.48-15.76,12.19,1.85,2.21,4.71,8.68-1.66,12.87-6.76.75-10.76-8.53-7.16-11.62,1.51-.62,2.48,0,2.63.86,1.87-1.47,4.36-3.27,1.07-5.34l-.2,2.75c-3.9-1.74-12.82.86-11.79-3.84-4.31,3.69-1,4.7,3,5.06-9.33-1.48-13.12,3.27-22.39,3.07,1.74,1,3.78,3.67,2.41,4-13.46.22-4.31,6.26-12.57,9.63-5.88-2.56-.69-9.64-8.45-4.14-6-1.21-2.9-6.4-1.35-9-6.56,6.94-15.53.68-20.29,1l3.61-3.16a13.85,13.85,0,0,1-6.28,2.94l3.73,4.4c-2.67-.22-4.74.32-5.26-1.79-1.62,4,4.18,7.87.44,13.73-3.94-1.69-9.11,5.41-12.06-1,10.82-.49-3-6.41,5.38-9.82-1.46,1.25-3.5,1.77-6.18,1.54-.58-.65,0-1.47.52-2-11.41-3.32-2.44,8.76-12.55,11.37.23-4.12-4.3-6.49-5.71-5.23,4-1.05,3.67,5.73.77,9.65-7.24-1.14-6.38,4.12-9.84,4.72l4.22.31c-.26,4.12-3.61,4.53-7.77,7-1.19-2.82,3.51-3.15,1.56-4-3.15,8-13.12-3.72-18.83,2.67-3.91-1.66-2.25-7-5.54-7.93-6.44,7.05-9.82-2.82-16.88,3.49,3.73,4.41,3.8,3.06-.61,9.6l12.46-7.31-6.61,9.77c4.07-1.06,7.68-5.57,10.35-5.39-3,5.28-2.9,3.9.19,7.56-7.62-6.05-9.8,7.49-17.61,4.15l-3.21-12.6c-11.15-2.9-15.38,11.21-28.74,11.54l4.61,1.06c-.17,2.73-2.06,3.44-4.34,3.86s-5,.47-6.74,2c-.75-4.3-3.7-5.17-6.13-7.34,1,3.06-9.25,2.07-8.18,10.75l-7.07-4.09c-10.72.33-8.44,14.94-18.58,16,1.76-5.32-3.45-7.16,2.23-12.11-3.26.79-6.39.77-5.68,3.7-2.58-2.14-7.57,8-11.59,4.76-.92,2.2-.18,6.7-4,7.32a3.32,3.32,0,0,1-.52-2.08c.47,2.09-5.1,4.38-.63,8.16-4.9-3.75-10-3.63-15-2.32s-9.84,3.82-14.5,4.84l-1.08.4c-2.08.54-4.19-.41-5.24-3.64a3.45,3.45,0,0,1-.43.23l3.42,17.68c1.68.67,4.25,2.56,7.73,6.24l.66.71.32.36.16.18.07.09h0s0,0,0-.07a.33.33,0,0,1,0-.21,2.84,2.84,0,0,1,.41-.63,10.21,10.21,0,0,1,.75-.83,12.54,12.54,0,0,1,1.17-1.09c1-.9,2-1.81,2.9-2.76l.7-.73c.26-.27.43-.46.6-.65l1-1.13,1.87-2.1c1.19-1.33,2.25-2.51,3.25-3.53.58,1.24,1.46,1.6.26,2.1,2.33-.79,3.11-1.87,3.26-3.22a13.74,13.74,0,0,0-.76-4.62c-.86-3.3-1.51-6.66,4-8.37,4.37.89,3.9,2.54,2.86,3.95s-2.57,2.51-.44,2.45c5.15,5,7.35,2.56,9.84-1.31a49.26,49.26,0,0,1,4-5.91,7.2,7.2,0,0,1,6.12-2.6l-.64,1.86c3.72-.32,5.07-3.67,6.25-7.47a47.13,47.13,0,0,1,2-5.79,14.13,14.13,0,0,1,3.95-5.17,3.54,3.54,0,0,0,1.47,1.57c-.77-9.44,5.62-19.12,10.31-26.36,2,5.85-.7,4.76,4.37,7.78,2.15-3.16-7.12-5.85-2.74-12.17,3.88.54,9.65-1.11,14.23,2.92l-4.86,4.93c4,1.66,5.54.11,6.6-2s1.61-4.9,3.41-5.58l1.93,2.88a30.86,30.86,0,0,0,2.65-3.38,16.7,16.7,0,0,0,1.68-3.36,26.17,26.17,0,0,0,1.28-6,24.76,24.76,0,0,1,1.2-5.57,13.9,13.9,0,0,1,3.8-5.5l-2.64-1c-.61-3.16-.13-4.4.72-4.81l31.34-15.08-37.76,3.81c-1.84.18-3.49-.64-5.33-.6s-3.65,1-4.37,4.36c-2.37-1.83-4.79-3.6-7.21-5.37a41.64,41.64,0,0,0-2.58,6.26,19.91,19.91,0,0,1-3.22,6.66,36.46,36.46,0,0,1-5.79,6.43c.33-3.3,1.79-6.52,3.18-9.42s2.69-5.53,2.94-7.66l.09-1.22a5.6,5.6,0,0,1,.09-.65l.11-.68-.74.6c-.23.2-.4.34-.58.52-.89.82-2.51,2.23-4.12,4s-3.1,3.85-3.09,5.83c1.21-1.62,2-4.48,4-4a22.37,22.37,0,0,1-4.27,11.1,24.58,24.58,0,0,1-8.59,7.83c-1.79-3.83-4-5.3-6.31-5.58a10.16,10.16,0,0,0-3.61.29c-.62.15-1.23.32-1.86.53s-1.22.4-2,.69c-5.92,2.22-12.51,5.15-17.91.42-5.23,5.81-12.05,8.09-19.35,9.67s-15.06,2.52-22.56,5.75c9.93,10.34-4.37,2,1,14.31-3.48,2.1-5,2.39-5.6,1.68-4.67-1.24-9.3-2.5-13.93-3.81-3.91-2.85,2.64-4,1.34-6.74-8.48,1.69-5.2-4.29-11.66-6,2.58,4.23-.74,7.47-6,7.18l8.44,3.84c-4.65,5.25-8,3.32-11.33,1.38s-6.64-3.9-11.43,1.23l2.45-5.15c-5.22,4.21-22,6.32-25.05,18.34-1.49-1.2-3.87-4.37-1.47-6-7.41,1.21-14.72,6.12-21.87,10.3S461.4,327,454.9,325.23l.32-3.47c-2.5,1.6-3.27,7.18-7.5,4.82-.14-1.37.32-3.46-1-3.34-1.16,1.45-5.84,7.37-9.91,6.35l2.22-4.33c-15.18-.81-19.86,13.9-31.51,18.84-2.09-9.45-14.15-10-20.19-10.24l-.1-1.39c-17.2,2.61-27.13,14.29-42,21.74a20.07,20.07,0,0,0-10.78-2.76,47.73,47.73,0,0,0-6.2.4c-2,.2-4.52.64-6.89,1.1-9.64,1.88-19.77,4.9-28.84,4.77,2.43.69,2.19,4.93.72,7.56l-3.53,6.31,4.26,6a20.65,20.65,0,0,1,2,3.43,8.46,8.46,0,0,1,.62,1.81,3.14,3.14,0,0,1,.11.94,5.31,5.31,0,0,1,.91-1.65l.45,8.33a4.52,4.52,0,0,1,.43.36l.26.26.36.36.4.45c.15.17.29.35.42.52s.4.48.58.72l.63.83c.26.35.51.69.74,1l1,1.39c.35.51.69,1,1,1.52.56.84,1.1,1.67,1.63,2.48l.8,1.25.2.31.05.08h.17s.26-.06.4-.07a2.36,2.36,0,0,1,.46,0,2.08,2.08,0,0,1,.91.32,5.3,5.3,0,0,1,1.79,2.26l-1,.51-.51.26c-.05,0-.14.05-.13,0a3.35,3.35,0,0,0,.49.62.56.56,0,0,0,.36.21l.42.17a10,10,0,0,0,1.69.45,9.77,9.77,0,0,0,3.49-.07,14,14,0,0,0,1.49-.28c.45-.1.8-.15,1.19-.26a11.28,11.28,0,0,0,2.24-.9c2.88-1.51,5.55-4.15,8.07-6l-6.32-9.81c11.6,1.69,19.18-6.43,25.51-14.31,3.18-4,6.06-7.84,9.2-10.46s6.6-4.06,10.9-3c.85-4.93,4.33-8.44,4.92-13.25l4.35,4.46a135.3,135.3,0,0,0,10.59-8.83A94.86,94.86,0,0,0,397,332.82l1.44,4.91c2.56-2.36.85-7-.9-11.75a36.66,36.66,0,0,1-2.08-6.9c-.35-2.12-.21-3.95.93-5.19l8,5.19c9.07-9,24.06-12.16,27.2-27,.81,1.12,2.42,3.3,1.2,5a24,24,0,0,1,2.17-1.66l1.37-.95,1.54-1.1a46.78,46.78,0,0,0,6.12-5c3.48-3.6,4.93-7.51-.42-11.17,3,2.85,5.53.57,7.48-3.3s3.37-9.33,4.43-13l3.63,5.05c-.86-5.09-1.64-7.92-1.53-10.59l-23.37-23.52-.18.28,0,.07-.09.12-.19.25a1.54,1.54,0,0,1-.13.17l-.28.35c-.21.27-.31.4-.67.89l-.22.32-.1.15h.11l.57-.16c.38-.11.75-.24,1.14-.38.76-.29,1.54-.63,2.37-1a60.64,60.64,0,0,0,5.77-3.33,2.45,2.45,0,0,0-.44-3.12c-.75-.57-2-.3-2.79,1.57a12.64,12.64,0,0,1,1.78-2.62l.11-.12v-.74a1.83,1.83,0,0,1,.45-.39,5.74,5.74,0,0,1,.93-.56,8.93,8.93,0,0,1,3.54-.76,10.54,10.54,0,0,0,1.7-.22,4.78,4.78,0,0,0,.78-.27l.16-.1.07,0-.06.1-.34.45a8.28,8.28,0,0,1-1.89,1.75,12.08,12.08,0,0,1-1.37.83l-.4.2-.11.05-.08.06h-.06l-.16.06c-.22.07-.45.14-.7.2l-.06-1.19,0-.3s0,0,.06-.13l0-.09,0-.18.11-.71c.14-1,.31-1.93.5-2.93-1,.73-1.86,1.41-2.55,2a8.76,8.76,0,0,0-1.1,1.1,4.37,4.37,0,0,0-1,2.13c-.23,1.48.21,3.26.19,6.14-1.72,4.44-10.75,6-14.69,2,1.26,3.25.95,9-3.12,9.82a4,4,0,0,1-1-4.21c-5.6,1.3-7.94,5-10.12,8.25s-4.18,6.12-9,5.6c-1.22-1.63-2.18-2.22-3-2.41,7.41-4.51,13.32-8,13-7.29-3.12-4.71-9.38-1.81-9.1-11.31-1.11,3.27-2.4,8.14-4.37,12.37s-4.63,7.87-8.25,8.59a7.17,7.17,0,0,1-1.82-1.16l.27-.92a4.61,4.61,0,0,0-3.21,3.11c-2.36.39-3.9.54-5.73,1.6-3.18-3.52-8.15,2.15-11.22,3.78,3.51,5.1-.9,6.67,5.42,8.74-.7-.08.18-1,2-2.42.35-.43.83-.84.93-1.33,0,.18.06.39.08.59,1.86-1.37,4.33-3.09,7.18-5-.68,4.14-1.74,7.93-6.85,7.08.58,4.33,1,8.84,1.09,11.07-8.65-4.78-18.89-4-22.69-8-3.61,4.18-8.63,7.77-12.77,11.91a29.76,29.76,0,0,0-5.31,6.83,19.38,19.38,0,0,0-2.44,8.77c-2,2.73-4.64-1.32-6.49-2.42,1-1.84,2.92-2.65,3-4.57-3.92,5.48-15.35,9.26-13,17.15-8.51.18.49-8.59-8.33-2.69l.16-2.86c-12.11-1.19-17.38,7.1-23.24,15.16s-12.25,15.78-26.31,13.23c1.89.24,2.82.32,3.7,1.41-13.53,2.34-25.08,9.67-36.89,16.4s-23.9,12.84-38.08,12.61c-7.67.76-6.37,5.8-9,11.2l-4-5.51-4.15,10c-4,4.66-9.93,2.68-15.9,1.31-3-.68-6-1.18-8.8-.6s-5.45,2.22-7.73,5.93l3.23,3.56c-4.91.95-13.82,7.89-14.78,2.74-.2.94,0,4.92-2.57,3.37L124.41,390c-3.14,3.24-6.33,6.39-9.54,9.58-9.77.49-2.94-13.5-16.22-10.09a15.58,15.58,0,0,0-3.52,3.37q-.45.56-.87,1.14a11.43,11.43,0,0,1-1.14,1.31c-.46.48-.87,1-1.3,1.48A4.82,4.82,0,0,0,91.2,398c-.44,3.08-1.36,5.85-.33,6.89a6.45,6.45,0,0,1,3,.85,6.34,6.34,0,0,1,3.33,3.1c-1.48,1.18-2.4,2.26-3.76,3.15.49,2.5.76,5.05,1,7.56A37.05,37.05,0,0,0,96,426.86a10.61,10.61,0,0,0,4.75,5.92,9.46,9.46,0,0,0,2.17,1c.87.24,1.72.47,2.41.74s1,.68,1.33,1.05l.24.29a1.52,1.52,0,0,0,.44.23c.37.13.79.23,1.21.34l5.92-8.39,4.08,3.94-6.52,2.35c5.19,3.28,6.31-1.39,8.07-4.91,1.47,2.31,3.14,3.75,5,4.16q2.34-6,4.59-11.9c2.25,3.47-.89,8.71,5,9,2.11-5.56-6.38-7.27-1.43-12.19,5.26,3.08,5.46,7,8.51,1.74a4.53,4.53,0,0,1-.21,5.88c2.86-4.36,9.88-5,10-10.86,5.89,3.92,12.48-6.35,15.59,2.81.38-2.65,4-9.72,7.35-11.53-1,6.68,2.3,5.52,6.3,4.2s8.58-2.83,10.12,3.28c.77-11.57,15.3-11.46,21.28-20.39-.13,1-.37,2.9-1.31,2.72,5-1.24,7.61,1,11.41,1.52-2.88-8.13,3.51-13.17,5.18-19.74,9.06,5,.74,10.77,5.79,17.25-3.14-6.23,6.95-10.82,2.62-15.24,6.45,2.72,4.74.58,9.94,6.05-3.75-10.14,3.26-3.5,4-11.16,8.44,1.94,5.86,8.42,11.29,2.27C265.9,378.75,261.45,385.05,261.45,385.05ZM411.88,284.21l.07.1L409,286.57C409.64,286.09,410.46,285.42,411.88,284.21Zm12.64-8.16a49.16,49.16,0,0,0-5.67,3.34c-1.59-1.52-2.28-3.68-1-4.4C418,276.63,421.63,275.77,424.52,276.05ZM375,256.72c1.5-2,2.81-1.37,3.75-.47a27.67,27.67,0,0,0-3,2.8c.06.23.08.53.17.79A10.79,10.79,0,0,1,375,256.72Z"/><path class="cls-2" d="M375.71,265.81c-.22.3-.23.62-.58.89a12.48,12.48,0,0,0,1.92.45c-.11-.71-.21-1.41-.33-2.08C376.38,265.32,376,265.57,375.71,265.81Z"/><path class="cls-2" d="M1044.62,228.46l-.34-.07a2.53,2.53,0,0,1,.85.7A4.87,4.87,0,0,1,1044.62,228.46Z"/><polygon class="cls-2" points="326.25 323.9 327.36 325.01 327.25 323.19 326.25 323.9"/><path class="cls-2" d="M1129.35,230.1a2.88,2.88,0,0,0,1.41,1.28A3.83,3.83,0,0,0,1129.35,230.1Z"/><path class="cls-2" d="M1164.15,223.3l5.38,1A21.69,21.69,0,0,0,1164.15,223.3Z"/><path class="cls-2" d="M1191.37,220a12.63,12.63,0,0,0-.09-2.71s0,0-.06,0Z"/><path class="cls-2" d="M773.58,331.73a2.84,2.84,0,0,0-.94.55C770.57,334.1,772.07,333.2,773.58,331.73Z"/><path class="cls-2" d="M894.15,284.69a22.85,22.85,0,0,1-3.29,3.85C893.2,288.43,895,288.11,894.15,284.69Z"/><path class="cls-2" d="M636,376.47s0-.06,0-.11c-.29.1-.56.14-.86.22Z"/><path class="cls-2" d="M885,289.93a6.12,6.12,0,0,0,5.82-1.39C888.94,288.6,886.64,288.55,885,289.93Z"/><path class="cls-2" d="M1307,195.54l1.34,0a2.4,2.4,0,0,1-.08-1Z"/><path class="cls-2" d="M1308.25,194.49l1.25-1.05C1308.85,193.59,1308.3,193.78,1308.25,194.49Z"/><path class="cls-2" d="M1312.13,191.21l-2.63,2.23C1310.54,193.2,1311.86,193.09,1312.13,191.21Z"/><path class="cls-2" d="M1271.21,201.12l.12,2.28A5.83,5.83,0,0,0,1271.21,201.12Z"/><path class="cls-2" d="M1260.69,204.28c2.66-.1,7.49,3.15,10.72.94l-.08-1.82C1270.43,207.05,1262.24,200,1260.69,204.28Z"/><path class="cls-2" d="M1209.79,187.83l9.35-.37c-2.12-2-4.91-4.59-1-6.11C1205.26,177.07,1221.72,186,1209.79,187.83Z"/><path class="cls-2" d="M1181.27,191c4.55-2.21-.85-3.36-.91-4.74C1177.82,189.09,1177.2,189.8,1181.27,191Z"/><path class="cls-2" d="M981,238.82l-.86-5.59C976.58,234.93,980.58,235.36,981,238.82Z"/><polygon class="cls-2" points="949.74 276.5 954.16 278.99 954.63 273.56 949.74 276.5"/><polygon class="cls-2" points="917.43 243.25 918.85 242.07 913.18 245.6 917.43 243.25"/><path class="cls-2" d="M581.79,335.61q1.26,3.22,2.81,6.33a.77.77,0,0,0,0-.27l1.53-.57c1.43-2,.35-7.18-2.13-6.71l-2.19.82C581.78,335.18,581.76,335.3,581.79,335.61Z"/><path class="cls-2" d="M694,273.83a7.07,7.07,0,0,0,5.29.18l122-61L680.12,240.4c-4.08.79-6.87,2.79-7.87,5.17a25.49,25.49,0,0,1,8.65-2.35l16.31,28.67C695.64,272.35,694.19,272.84,694,273.83Z"/><polygon class="cls-2" points="333.25 391.53 332.23 395.31 335.67 390.08 333.25 391.53"/></g></svg>