<?xml version="1.0" ?><svg height="250px" version="1.1" viewBox="0 0 239 250" width="239px" xmlns="http://www.w3.org/2000/svg" xmlns:xlink="http://www.w3.org/1999/xlink"><title/><desc/><g fill="none" fill-rule="evenodd" id="twitch_logo" stroke="none" stroke-width="1"><path d="M97.09375,130.527985 L119.5,130.527985 L119.5,65.2985075 L97.09375,65.2985075 L97.09375,130.527985 Z M156.84375,130.527985 L179.25,130.527985 L179.25,65.2985075 L156.84375,65.2985075 L156.84375,130.527985 Z M216.59375,141.791045 L179.25,179.104478 L119.5,179.104478 L87.7578125,210.820896 L87.7578125,179.104478 L37.34375,179.104478 L37.34375,22.3880597 L216.59375,22.3880597 L216.59375,141.791045 Z M16.8046875,0 L0,42.9104478 L0,218.283582 L59.75,218.283582 L59.75,250 L93.359375,250 L125.101562,218.283582 L173.648437,218.283582 L239,152.985075 L239,0 L16.8046875,0 Z" fill="#6440A4" id="Fill-1"/></g></svg>